<svg id="Calque_1" data-name="Calque 1" xmlns="http://www.w3.org/2000/svg" viewBox="0 0 361.63758 50.2275">
  <defs>
    <style>
      .cls-1 {
        fill: #1d1d1b;
      }

      .cls-2 {
        fill: #d02017;
      }

      .cls-3 {
        fill: #fff;
      }
    </style>
  </defs>
  <g>
    <g>
      <path class="cls-1" d="M16.77,31.12c-3.8,0-4.78-.08-5.72-.08-1.18,0-2.7.08-4.35.08-.67,0-.82,0-.82-.2,0-.23.16-.23.78-.23a3.4673,3.4673,0,0,0,2.78-1.33,4.02623,4.02623,0,0,0,.31-1.84V13.68a6.06926,6.06926,0,0,0-.31-2.67A3.4673,3.4673,0,0,0,6.66,9.68c-.63,0-.78,0-.78-.24,0-.2.16-.2.82-.2,1.57,0,3.02.08,4.08.08,1.61,0,2.98-.08,4.47-.08H26.46a8.18049,8.18049,0,0,0,2.55-.39c.16,0,.27.08.24.31l-.55,5.17c-.04.31-.43.31-.43-.04-.24-3.92-2.35-4.04-6.31-4.04H15.3c-2.51,0-3.1.35-3.1,3.33v5.29c0,.12.04.16.12.16h8.04c2.39,0,3.57-.86,4-2.27.16-.43.16-.78.39-.78.27,0,.2.43.2.78,0,.82-.08,2.08-.08,2.86s.08,1.96.08,2.78c0,.35.08.82-.2.82-.24,0-.24-.39-.39-.82-.43-1.29-1.53-2.27-4-2.27H12.32c-.08,0-.12.08-.12.16v5.84c0,3.33.16,3.88,4.63,3.88h4.59c4.27,0,6.55-.39,8.55-4.7.16-.31.47-.16.39.08l-.98,3.25c-.63,2.16-.98,2.47-3.53,2.47H16.8Z" transform="translate(-5.88 -5.9925)"/>
      <path class="cls-1" d="M41.93,9.68c-.47,0-.98,0-.98-.24s.31-.24.74-.24c2.23,0,2.82.08,5.37.08s7.25-.08,8.58-.08c4.9,0,10.23.71,10.23,6.08,0,3.84-3.06,5.37-6.66,5.92.86.43,1.57,1.49,2.59,2.98,4.39,6.51,5.33,6.82,8.23,6.62.2,0,.35.31.04.39a7.33265,7.33265,0,0,1-1.25.12c-5.02,0-5.29-.08-10.98-8.47-.63-.94-1.06-1.37-2.08-1.41h-7.8s-.08.04-.08.08V25.9c0,4.43,1.57,4.74,3.57,4.74.47,0,.98,0,.98.24s-.31.24-.74.24c-2.04,0-3.33-.08-4.98-.08s-3.02.08-5.06.08c-.43,0-.74,0-.74-.24s.51-.24.98-.24c2,0,3.57-.31,3.57-4.74V14.77c0-4.43-1.53-5.1-3.53-5.1ZM56.44,20.34c3.57,0,6.62-1.49,6.62-5.06,0-3.84-3.06-4.98-6.62-4.98h-3.8c-4.7,0-4.74.04-4.74,4.39v5.57s.04.08.08.08h8.46Z" transform="translate(-5.88 -5.9925)"/>
      <path class="cls-1" d="M106.29,29.39c0,1.61,0,2.12-.24,2.12s-.35-.08-.9-.63L84.22,11.2V26.61c0,2.55.27,4.08,3.53,4.08.55,0,.71.43.04.43-1.18,0-3.06-.08-4.23-.08-1.49,0-2.63.08-4.12.08-.67,0-.63-.43.04-.43,3.02,0,3.65-1.49,3.65-4.08V12.38c-.08-1.06-.71-2.71-3.53-2.71-.67,0-.55-.43-.16-.43h4.51c1.69,0,1.8,0,3.96,2.04l17.25,16.27V13.71c0-2.35-.2-4.04-3.45-4.04-.27,0-.59,0-.59-.24,0-.2.24-.2.43-.2,1.18,0,2.94.08,4.12.08,1.49,0,2.82-.08,4.31-.08.43,0,.47.08.47.2s-.08.24-.59.24c-2.86,0-3.57,1.69-3.57,4.12Z" transform="translate(-5.88 -5.9925)"/>
      <path class="cls-1" d="M142.79,15.05c0,.39-.35.51-.47,0-.98-4.55-5.57-5.09-8.82-5.09-4.43,0-8.86.9-8.86,4.23,0,6.98,19.56,1.29,19.56,10.62,0,3.76-3.25,6.7-10.94,6.7a24.32456,24.32456,0,0,1-9.49-1.69c-.86-.31-.59.63-.98.63-.24,0-.43-.2-.51-.82l-.71-5.53a.24.24,0,0,1,.27-.27c.16,0,.2.08.27.35,1.72,5.49,7.1,6.23,11.13,6.23,7.33,0,9.09-2.43,9.09-4.82,0-8-19.64-1.92-19.64-10.82,0-4.7,5.72-5.92,10.7-5.92a22.84275,22.84275,0,0,1,7.53,1.29c.86.27.67-.51,1.14-.51.27,0,.35.31.43,1.41l.27,4Z" transform="translate(-5.88 -5.9925)"/>
      <path class="cls-1" d="M166.7,10.5h-6.98c-2.55,0-3.57,1.53-4.23,4a.24538.24538,0,0,1-.27.23c-.16,0-.16-.35-.16-.35l.59-5.33c0-.16.04-.2.2-.2a3.31545,3.31545,0,0,0,2.04.39h19.95a3.353,3.353,0,0,0,2.04-.39c.16,0,.24.08.24.2l.59,5.33c.04.27-.12.35-.2.35a.24275.24275,0,0,1-.27-.23c-.63-2.47-1.65-4-4.19-4h-6.98V26.69a5.7985,5.7985,0,0,0,.35,2.63,3.1478,3.1478,0,0,0,2.59,1.37c.39,0,.82,0,.82.23,0,.2-.31.2-.67.2-1.57,0-3.14-.08-4.27-.08s-2.71.08-4.27.08c-.39,0-.67,0-.67-.2,0-.23.43-.23.82-.23a3.2692,3.2692,0,0,0,2.59-1.37,6.01867,6.01867,0,0,0,.35-2.63V10.5Z" transform="translate(-5.88 -5.9925)"/>
      <path class="cls-1" d="M216.91,31.12c-1.41,0-3.1-.08-4.23-.08s-2.63.08-3.88.08c-.86,0-.98-.04-.98-.2,0-.23.31-.23.51-.23,1.33-.04,2.63-.51,3.06-1.33a4.02623,4.02623,0,0,0,.31-1.84V13.68c0-2.2-.27-4-3.1-4-.47,0-.78,0-.78-.24,0-.16.08-.2,1.02-.2,1.29,0,2.74.08,4,.08s3.1-.08,4.51-.08h6.39c5.65,0,9.09,2.27,9.09,5.29,0,2.55-2.27,4.16-4.35,4.59,3.33.39,6.39,2.27,6.39,5.96,0,5.17-6.15,6.04-9.84,6.04h-8.12Zm6.82-12.27c3.45,0,6.12-1.41,6.12-4.31s-2.71-4.27-6.12-4.27h-6.35c-3.33,0-3.41.12-3.41,3.33v5.14a.12772.12772,0,0,0,.12.12h9.64Zm1.29,11.21c5.06,0,6.86-2.27,6.86-5.1s-1.88-5.02-6.43-5.02H214.08s-.12.04-.12.12V26.1c0,3.49.2,3.96,5.37,3.96h5.69Z" transform="translate(-5.88 -5.9925)"/>
      <path class="cls-1" d="M256.97,31.12c-3.8,0-4.78-.08-5.72-.08-1.18,0-2.71.08-4.35.08-.67,0-.82,0-.82-.2,0-.23.16-.23.78-.23a3.46726,3.46726,0,0,0,2.78-1.33,4.02623,4.02623,0,0,0,.31-1.84V13.68a6.0691,6.0691,0,0,0-.31-2.67,3.46726,3.46726,0,0,0-2.78-1.33c-.63,0-.78,0-.78-.24,0-.2.16-.2.82-.2,1.57,0,3.02.08,4.08.08,1.61,0,2.98-.08,4.47-.08h11.21a8.18031,8.18031,0,0,0,2.55-.39c.16,0,.27.08.24.31l-.55,5.17c-.04.31-.43.31-.43-.04-.24-3.92-2.35-4.04-6.31-4.04H255.5c-2.51,0-3.1.35-3.1,3.33v5.29c0,.12.04.16.12.16h8.04c2.39,0,3.57-.86,4-2.27.16-.43.16-.78.39-.78.27,0,.2.43.2.78,0,.82-.08,2.08-.08,2.86s.08,1.96.08,2.78c0,.35.08.82-.2.82-.24,0-.24-.39-.39-.82-.43-1.29-1.53-2.27-4-2.27h-8.04c-.08,0-.12.08-.12.16v5.84c0,3.33.16,3.88,4.63,3.88h4.59c4.27,0,6.55-.39,8.55-4.7.16-.31.47-.16.39.08l-.98,3.25c-.63,2.16-.98,2.47-3.53,2.47H257Z" transform="translate(-5.88 -5.9925)"/>
      <path class="cls-1" d="M314.04,31.12c-3.8,0-4.78-.08-5.72-.08-1.18,0-2.71.08-4.35.08-.67,0-.82,0-.82-.2,0-.23.16-.23.78-.23a3.46732,3.46732,0,0,0,2.78-1.33,4.02609,4.02609,0,0,0,.31-1.84V13.68a6.06941,6.06941,0,0,0-.31-2.67,3.46732,3.46732,0,0,0-2.78-1.33c-.63,0-.78,0-.78-.24,0-.2.16-.2.82-.2,1.57,0,3.02.08,4.08.08,1.61,0,2.98-.08,4.47-.08h11.21a8.18031,8.18031,0,0,0,2.55-.39c.16,0,.27.08.24.31l-.55,5.17c-.04.31-.43.31-.43-.04-.24-3.92-2.35-4.04-6.31-4.04h-6.66c-2.51,0-3.1.35-3.1,3.33v5.29c0,.12.04.16.12.16h8.04c2.39,0,3.57-.86,4-2.27.16-.43.16-.78.39-.78.27,0,.2.43.2.78,0,.82-.08,2.08-.08,2.86s.08,1.96.08,2.78c0,.35.08.82-.2.82-.24,0-.24-.39-.39-.82-.43-1.29-1.53-2.27-4-2.27h-8.04c-.08,0-.12.08-.12.16v5.84c0,3.33.16,3.88,4.63,3.88h4.59c4.27,0,6.55-.39,8.55-4.7.16-.31.47-.16.39.08l-.98,3.25c-.63,2.16-.98,2.47-3.53,2.47h-9.05Z" transform="translate(-5.88 -5.9925)"/>
      <path class="cls-1" d="M339.2,9.68c-.47,0-.98,0-.98-.24s.31-.24.74-.24c2.23,0,2.82.08,5.37.08s7.25-.08,8.58-.08c4.9,0,10.23.71,10.23,6.08,0,3.84-3.06,5.37-6.66,5.92.86.43,1.57,1.49,2.59,2.98,4.39,6.51,5.33,6.82,8.23,6.62.2,0,.35.31.04.39a7.33277,7.33277,0,0,1-1.25.12c-5.02,0-5.29-.08-10.98-8.47-.63-.94-1.06-1.37-2.08-1.41h-7.8s-.08.04-.08.08V25.9c0,4.43,1.57,4.74,3.57,4.74.47,0,.98,0,.98.24s-.31.24-.74.24c-2.04,0-3.33-.08-4.98-.08s-3.02.08-5.06.08c-.43,0-.74,0-.74-.24s.51-.24.98-.24c2,0,3.57-.31,3.57-4.74V14.77c0-4.43-1.53-5.1-3.53-5.1Zm14.51,10.66c3.57,0,6.62-1.49,6.62-5.06,0-3.84-3.06-4.98-6.62-4.98h-3.8c-4.7,0-4.74.04-4.74,4.39v5.57s.04.08.08.08h8.46Z" transform="translate(-5.88 -5.9925)"/>
    </g>
    <g>
      <path class="cls-1" d="M135.05,56.04l-2.27-3.3h-4.57v3.3h-1.58V46.47h6.38c2.46,0,3.64,1.51,3.64,3.12a2.92166,2.92166,0,0,1-2.21,2.95l2.4,3.49h-1.79Zm-6.84-8.18v3.49h4.59c1.79,0,2.15-.88,2.15-1.75,0-.78-.36-1.73-2.15-1.73h-4.59Z" transform="translate(-5.88 -5.9925)"/>
      <path class="cls-1" d="M139.39,56.04V46.47H149v1.26h-8.02v2.84h6.65v1.18h-6.65v3.03H149v1.26Z" transform="translate(-5.88 -5.9925)"/>
      <path class="cls-1" d="M159.9,53.96h-6.86l-1.35,2.08h-1.75l6.54-9.72,6.56,9.72h-1.75l-1.37-2.08Zm-6.01-1.3h5.15l-2.57-3.91-2.57,3.91Z" transform="translate(-5.88 -5.9925)"/>
      <path class="cls-1" d="M164.71,56.04V46.47h1.58v8.21h7.38v1.35h-8.96Z" transform="translate(-5.88 -5.9925)"/>
      <path class="cls-1" d="M180.87,56.04V46.47h9.61v1.26h-8.02v2.84h6.65v1.18h-6.65v3.03h8.02v1.26Z" transform="translate(-5.88 -5.9925)"/>
      <path class="cls-1" d="M201.72,48.14a13.08438,13.08438,0,0,0-4.1-.51c-1.62,0-3.58.15-3.58,1.37,0,2.42,8.42-.13,8.42,4.25,0,2.52-2.78,2.97-5.32,2.97a23.704,23.704,0,0,1-4.86-.48l.06-1.3a22.63041,22.63041,0,0,0,4.61.48c1.96,0,3.98-.29,3.98-1.62,0-2.65-8.44-.06-8.44-4.23,0-2.46,2.9-2.76,4.92-2.76a15.95036,15.95036,0,0,1,4.4.53l-.1,1.3Z" transform="translate(-5.88 -5.9925)"/>
      <path class="cls-1" d="M208.1,56.04v-8.2h-4.61V46.47H214.3v1.37h-4.59v8.2H208.1Z" transform="translate(-5.88 -5.9925)"/>
      <path class="cls-1" d="M223.11,53.96h-6.86l-1.35,2.08h-1.75l6.54-9.72,6.56,9.72H224.5l-1.37-2.08Zm-6-1.3h5.15l-2.57-3.91-2.57,3.91Z" transform="translate(-5.88 -5.9925)"/>
      <path class="cls-1" d="M229.68,56.04v-8.2h-4.61V46.47h10.81v1.37h-4.59v8.2h-1.61Z" transform="translate(-5.88 -5.9925)"/>
      <path class="cls-1" d="M237.93,56.04V46.47h9.61v1.26h-8.02v2.84h6.65v1.18h-6.65v3.03h8.02v1.26Z" transform="translate(-5.88 -5.9925)"/>
    </g>
    <g>
      <rect class="cls-2" x="185.46" y="11.7775" width="5.95" height="5.95"/>
      <polygon class="cls-3" points="187.87 12.898 188.98 12.898 188.98 14.208 190.27 14.208 190.27 15.318 189 15.318 189 16.598 187.87 16.598 187.87 15.318 186.57 15.318 186.57 14.198 187.87 14.198 187.87 12.898"/>
    </g>
    <path class="cls-1" d="M282.4,30.63c.01-.78.02-1.57.03-2.35,0-.06.02-.08.07-.08h4.47c.07,0,.1-.02.1-.1,0-.54,0-1.09.02-1.63a.16452.16452,0,0,0-.02-.1.361.361,0,0,1,.02-.43.06086.06086,0,0,0,0-.08,5.01326,5.01326,0,0,1-.16-.86,5.91839,5.91839,0,0,1-.04-.94,7.932,7.932,0,0,1,.1-.98c.03-.13.04-.27.08-.4,0-.03,0-.05-.03-.07a.36547.36547,0,0,1-.02-.52c.04-.05.04-.08,0-.14a3.8238,3.8238,0,0,1-.52-1.1,2.84206,2.84206,0,0,1-.1-.57,1.5798,1.5798,0,0,1,.19-.88,1.03874,1.03874,0,0,1,.12-.17c.04-.04.05-.07.01-.12a.33115.33115,0,0,1-.02-.38.075.075,0,0,0,0-.09.37968.37968,0,0,1,.04-.49c.02-.02,0-.04-.01-.06a.26841.26841,0,0,1,.01-.42.0844.0844,0,0,0,.02-.07.24653.24653,0,0,0-.43-.11,1.72806,1.72806,0,0,1-.24.23,1.10741,1.10741,0,0,1-1.33-.14.6898.6898,0,0,1-.14-.63.4739.4739,0,0,1,.46-.35.58868.58868,0,0,1,.39.1c.01,0,.02.02.04.01.02,0,.01-.03,0-.04a.4532.4532,0,0,0-.11-.19,1.73458,1.73458,0,0,0-.65-.42,3.69629,3.69629,0,0,1-.77-.45,5.38721,5.38721,0,0,1-1.23-1.29,3.64388,3.64388,0,0,1-.71-2.18,4.21936,4.21936,0,0,1,.1-.87,3.416,3.416,0,0,1,.34-.99,2.14349,2.14349,0,0,1,1.2-1.09,2.73766,2.73766,0,0,1,1.1-.18c.1,0,.11,0,.11-.1a1.63576,1.63576,0,0,1,.16-.75,1.33343,1.33343,0,0,1,.78-.71,2.14074,2.14074,0,0,1,.62-.13c.08,0,.1-.04.11-.11a1.309,1.309,0,0,1,.67-1.01,1.65389,1.65389,0,0,1,.72-.2,2.5724,2.5724,0,0,1,.78.06,1.37216,1.37216,0,0,1,1.11,1.1.23579.23579,0,0,0,.02.08c.03.13.03.12.17.14a1.69546,1.69546,0,0,1,1.12.57,1.553,1.553,0,0,1,.32,1.04c0,.12,0,.12.11.12a2.62743,2.62743,0,0,1,1.49.44,2.19011,2.19011,0,0,1,.72.85,3.38949,3.38949,0,0,1,.3.88,3.95346,3.95346,0,0,1,.02,1.81,4.32971,4.32971,0,0,1-.7,1.43,4.8147,4.8147,0,0,1-.74.82,4.16665,4.16665,0,0,1-1.17.77,1.645,1.645,0,0,0-.67.43.46131.46131,0,0,0-.09.15c0,.02-.02.05,0,.06.02.02.04,0,.05-.02a.60177.60177,0,0,1,.74.09.53381.53381,0,0,1,.1.44.75179.75179,0,0,1-.63.62,1.2012,1.2012,0,0,1-.79-.1.86159.86159,0,0,1-.18-.14c-.04-.04-.07-.08-.1-.11-.17-.18-.32-.15-.44.06-.02.04-.02.06.01.09a.25383.25383,0,0,1,0,.4c-.03.03-.02.05,0,.09a.3904.3904,0,0,1,0,.48c-.02.03,0,.06,0,.09a.31558.31558,0,0,1-.02.37.07847.07847,0,0,0,0,.11,1.37916,1.37916,0,0,1,.31.89,2.88876,2.88876,0,0,1-.3,1.22,4.03361,4.03361,0,0,1-.36.64.07506.07506,0,0,0,0,.09.3715.3715,0,0,1,0,.54.09188.09188,0,0,0-.02.1,7.25271,7.25271,0,0,1,.15,1.23,7.12541,7.12541,0,0,1-.06,1.22,5.44127,5.44127,0,0,1-.15.7c0,.03-.02.06,0,.09a.36176.36176,0,0,1,.02.41.30492.30492,0,0,0-.03.16c0,1.02-.01,2.05-.02,3.07,0,1.15,0,2.3-.01,3.46v.75c0,.07-.02.08-.08.08-.61,0-1.23,0-1.84.02-.08,0-.1-.03-.1-.1v-.64c0-.11,0-.12-.11-.11-.51,0-1.02.01-1.53.02-.82,0-1.64.01-2.47.02h-.48c-.07,0-.08-.02-.08-.08,0-.47.01-.94.02-1.41v-.94h.01Zm6.56-14.85c-.07-.09-.15-.14-.2-.21a.44643.44643,0,0,1-.08-.48.43046.43046,0,0,1,.48-.26.42445.42445,0,0,1,.3.32c.05.18,0,.25-.13.31-.04.01-.08.03-.07.07a.08485.08485,0,0,0,.07.08,1.6035,1.6035,0,0,0,.75.12,1.56192,1.56192,0,0,0,.75-.34,3.229,3.229,0,0,0,.88-.96,3.39467,3.39467,0,0,0,.48-2.2,2.22731,2.22731,0,0,0-.12-.57,1.04078,1.04078,0,0,0-1.29-.63.73292.73292,0,0,0-.35.25.0895.0895,0,0,0,.01.14.15683.15683,0,0,0,.22,0,.66317.66317,0,0,1,.38-.17.2907.2907,0,0,1,.34.25,1.20214,1.20214,0,0,1,0,.19.54608.54608,0,0,1-.49.51,1.19254,1.19254,0,0,1-.93-.24,1.11138,1.11138,0,0,1-.4-.65,1.40723,1.40723,0,0,1,.1-.81,2.05379,2.05379,0,0,1,.25-.46c.01-.02.04-.04.02-.07s-.04,0-.06,0a1.34508,1.34508,0,0,1-.49,0,.26979.26979,0,0,1-.22-.34.26555.26555,0,0,1,.29-.26.27474.27474,0,0,0,.27-.36.73816.73816,0,0,0-.27-.4.49948.49948,0,0,0-.65-.07.82537.82537,0,0,1-.43.15.99008.99008,0,0,1-.67-.16.44358.44358,0,0,0-.44-.09.78749.78749,0,0,0-.48.48.29408.29408,0,0,0,.07.35.36771.36771,0,0,0,.22.06.25584.25584,0,0,1,.19.1.32324.32324,0,0,1-.21.51,1.486,1.486,0,0,1-.47-.02c-.02,0-.04-.02-.05,0-.02.02,0,.04.02.06a2.44675,2.44675,0,0,1,.33.78,1.12749,1.12749,0,0,1-.68,1.31,1.60571,1.60571,0,0,1-.38.08.67707.67707,0,0,1-.62-.18.639.639,0,0,1-.17-.51.30579.30579,0,0,1,.42-.29.73869.73869,0,0,1,.28.14.44432.44432,0,0,0,.11.08c.07.04.12,0,.17-.06.04-.05.02-.09-.02-.14a.82941.82941,0,0,0-.7-.3.988.988,0,0,0-.89.55,1.58068,1.58068,0,0,0-.15.48,3.38011,3.38011,0,0,0-.04,1.1,3.46732,3.46732,0,0,0,1.35,2.33,1.44759,1.44759,0,0,0,1.41.27c.06-.02.14-.03.15-.1s-.07-.08-.12-.11a.16631.16631,0,0,1-.1-.14.46365.46365,0,0,1,.39-.47.44591.44591,0,0,1,.42.57.64294.64294,0,0,1-.18.27.32308.32308,0,0,0-.11.12,3.66375,3.66375,0,0,1,1.58.02Zm-2.14,14.83h0v-.62c0-.07-.02-.09-.09-.09-.32,0-.65,0-.97.01-.07,0-.09-.02-.09-.09,0-.33,0-.67.01-1.01,0-.06-.02-.08-.08-.08h-1.22c-.08,0-.1.03-.1.11v.97c0,.08-.02.1-.1.1h-.92c-.17,0-.16,0-.17.16,0,.39,0,.77-.02,1.16,0,.07.02.1.09.1h1.01c.05,0,.07.02.07.07v.98c0,.11,0,.12.11.11h1.21c.07,0,.09-.03.09-.09v-.98c0-.07.02-.1.09-.1h.97c.07,0,.1-.02.1-.09v-.62Zm1.04-23.53a.37193.37193,0,0,0,.36.36.36712.36712,0,0,0,.37-.36.37928.37928,0,0,0-.36-.36.35276.35276,0,0,0-.37.35Z" transform="translate(-5.88 -5.9925)"/>
  </g>
</svg>
